<svg width="16" height="15" viewBox="0 0 16 15" fill="none" xmlns="http://www.w3.org/2000/svg">
<path d="M13.3496 5.82031H15.5273V7.30469H13.3496V8.75H15.5273V10.2344H13.3496V15H11.4551L8.33984 10.2344H4.29688V15H2.42188V10.2344H0.302734V8.75H2.42188V7.30469H0.302734V5.82031H2.42188V0.78125H4.29688L7.58789 5.82031H11.4844V0.78125H13.3496V5.82031ZM4.29688 8.75H7.37305L6.42578 7.30469H4.29688V8.75ZM9.49219 8.75H11.4844V7.30469H8.55469L9.49219 8.75ZM4.29688 5.82031H5.45898L4.29688 4.04297V5.82031ZM11.4844 11.7871V10.2344H10.4688L11.4844 11.7871Z" fill="black"/>
</svg>
